<?xml version="1.0" encoding="utf-8"?>
<!-- Generator: Adobe Illustrator 16.0.0, SVG Export Plug-In . SVG Version: 6.00 Build 0)  -->
<!DOCTYPE svg PUBLIC "-//W3C//DTD SVG 1.1//EN" "http://www.w3.org/Graphics/SVG/1.1/DTD/svg11.dtd">
<svg version="1.1" id="Layer_1" xmlns="http://www.w3.org/2000/svg" xmlns:xlink="http://www.w3.org/1999/xlink" x="0px" y="0px"
	 width="521.739px" height="288.406px" viewBox="0 0 521.739 288.406" enable-background="new 0 0 521.739 288.406"
	 xml:space="preserve">
<g opacity="0.2">
	<path fill-rule="evenodd" clip-rule="evenodd" fill="#40C0FF" d="M90.107,135.129c1.199,0.557,2.387,1.045,3.576,1.475
		c-1.31,0.78-2.188,2.218-2.188,3.862c0,2.477,1.993,4.484,4.451,4.484c2.458,0,4.451-2.008,4.451-4.484
		c0-0.771-0.193-1.496-0.533-2.129c1.625,0.336,3.29,0.597,5.024,0.803l0.146,0.017c-2.925,1.33-4.931,4.059-4.931,7.209
		c0,4.457,4.013,8.069,8.963,8.069s8.964-3.612,8.964-8.069c0-2.395-1.159-4.544-2.998-6.021l7.778,0.923
		c-1.47,0.729-2.481,2.253-2.481,4.015c0,2.471,1.987,4.473,4.439,4.473s4.439-2.002,4.439-4.473c0-1.387-0.626-2.627-1.61-3.447
		l38.7,4.594l-6.654,5.406c0,0-23.648-1.689-33.629-0.164c-18.827,2.876-32.22,18.564-36.516-10.927
		c0.879,8.636,0.696,17.41,9.946,19.198c11.135,2.152,15.026-3.994,26.844-5.819c7.521-1.161,17.355-1.231,32.939,0.067
		c1.664,0.139,12.477-9.564,12.477-9.564L90.107,135.129z"/>
	<path fill-rule="evenodd" clip-rule="evenodd" fill="#40C0FF" d="M435.08,135.129c-1.199,0.557-2.387,1.045-3.576,1.475
		c1.31,0.78,2.188,2.218,2.188,3.862c0,2.477-1.993,4.484-4.451,4.484s-4.451-2.008-4.451-4.484c0-0.771,0.193-1.496,0.532-2.129
		c-1.624,0.336-3.289,0.597-5.024,0.803l-0.146,0.017c2.925,1.33,4.932,4.059,4.932,7.209c0,4.457-4.013,8.069-8.964,8.069
		c-4.95,0-8.963-3.612-8.963-8.069c0-2.395,1.158-4.544,2.997-6.021l-7.777,0.923c1.47,0.729,2.481,2.253,2.481,4.015
		c0,2.471-1.988,4.473-4.439,4.473s-4.438-2.002-4.438-4.473c0-1.387,0.626-2.627,1.61-3.447l-38.7,4.594l6.653,5.406
		c0,0,23.648-1.689,33.629-0.164c18.827,2.876,32.221,18.564,36.517-10.927c-0.88,8.636-0.695,17.41-9.945,19.198
		c-11.135,2.152-15.026-3.994-26.845-5.819c-7.521-1.161-17.355-1.231-32.939,0.067c-1.663,0.139-12.477-9.564-12.477-9.564
		L435.08,135.129z"/>
	<path fill-rule="evenodd" clip-rule="evenodd" fill="#40C0FF" d="M192.292,141.713c-1.663,0.277-16.986,12.629-18.853,17.189
		c-1.2,2.933,10.576,44.043,22.319,65.017c0,0-19.339-58.085-19.2-62.937s14.834-16.082,17.745-16.774
		c2.826-0.673,48.445-2.945,68.291-2.376v-3.592C245.397,138.151,208.021,137.761,192.292,141.713z"/>
	<path fill-rule="evenodd" clip-rule="evenodd" fill="#40C0FF" d="M332.895,141.713c1.663,0.277,16.986,12.629,18.854,17.189
		c1.2,2.933-10.576,44.043-22.319,65.017c0,0,19.339-58.085,19.2-62.937s-14.834-16.082-17.745-16.774
		c-2.826-0.673-48.445-2.945-68.291-2.376v-3.592C279.79,138.151,317.166,137.761,332.895,141.713z"/>
	<path fill-rule="evenodd" clip-rule="evenodd" fill="#40C0FF" d="M192.848,170.89h69.745h69.745
		c-22.642,1.941-46.164,2.526-69.745,2.679C239.012,173.417,215.49,172.832,192.848,170.89z"/>
	<path fill-rule="evenodd" clip-rule="evenodd" fill="#40C0FF" d="M192.016,161.325h70.577h70.577
		c-22.908,1.965-46.718,2.54-70.577,2.685C238.734,163.865,214.924,163.29,192.016,161.325z"/>
	<path fill-rule="evenodd" clip-rule="evenodd" fill="#40C0FF" d="M191.881,150.413h70.712h70.711
		c-22.95,1.967-46.807,2.541-70.711,2.685C238.688,152.954,214.833,152.379,191.881,150.413z"/>
	<path fill-rule="evenodd" clip-rule="evenodd" fill="#40C0FF" d="M193.68,202.704h68.913h68.913
		c-22.375,1.918-45.61,2.512-68.913,2.673C239.291,205.215,216.055,204.622,193.68,202.704z"/>
	<path fill-rule="evenodd" clip-rule="evenodd" fill="#40C0FF" d="M192.848,193.137h69.745h69.745
		c-22.642,1.941-46.164,2.527-69.745,2.68C239.012,195.665,215.49,195.079,192.848,193.137z"/>
	<path fill-rule="evenodd" clip-rule="evenodd" fill="#40C0FF" d="M192.713,182.225h69.88h69.88
		c-22.685,1.945-46.254,2.529-69.88,2.68C238.967,184.754,215.398,184.17,192.713,182.225z"/>
	<path fill-rule="evenodd" clip-rule="evenodd" fill="#40C0FF" d="M84.927,221.914c8.079,4.118,65.686,11.757,77.838,13.782
		c4.649,0.774,28.323-6.918,30.983-7.139c2.66-0.223,39.8,1.36,68.846,1.334c29.046,0.026,66.185-1.557,68.846-1.334
		c2.66,0.221,26.334,7.913,30.982,7.139c12.152-2.025,69.76-9.664,77.838-13.782c2.45-9.247,1.255-20.514-2.813-26.108
		c-3.327-4.574-90.402,5.515-92.603,5.684c0,0,1.617,0.128,3.457-0.012c14.29-1.083,76.915-5.973,87.239-4.806
		c2.833,0.319,6.094,18.226,3.188,23.753c-22.304,6.318-53.777,9.965-76.549,12.291c-0.862,0.088-26.021-7.278-30.81-7.278
		l-68.776,0.001l-68.776-0.001c-4.788,0-29.948,7.366-30.81,7.278c-22.771-2.326-54.245-5.973-76.549-12.291
		c-2.906-5.527,0.355-23.434,3.188-23.753c10.325-1.167,72.95,3.723,87.239,4.806c1.84,0.14,3.458,0.012,3.458,0.012
		c-2.201-0.169-89.276-10.258-92.603-5.684C83.672,201.4,82.477,212.667,84.927,221.914z"/>
	<path fill-rule="evenodd" clip-rule="evenodd" fill="#40C0FF" d="M163.735,157.787l9.149,36.597c0,0-4.484-12.222-6.955-19.032
		c0,0-70.755-9.848-72.09-10.114c-1.335-0.268,62.127,6.477,71.659,7.43C165.443,171.034,163.735,157.787,163.735,157.787z"/>
	<path fill-rule="evenodd" clip-rule="evenodd" fill="#40C0FF" d="M361.452,157.787l-9.149,36.597c0,0,4.483-12.222,6.954-19.032
		c0,0,70.756-9.848,72.091-10.114c1.334-0.268-62.128,6.477-71.659,7.43C359.744,171.034,361.452,157.787,361.452,157.787z"/>
	<path fill-rule="evenodd" clip-rule="evenodd" fill="#40C0FF" d="M69.885,169.43c1.382,12.722,2.774,70.584,17.354,73.194
		c19.364,3.466,75.495,3.743,175.354,4.503c99.859-0.76,155.99-1.037,175.354-4.503c14.579-2.61,15.972-60.473,17.354-73.194
		c-0.799,13.024-2,69.992-14.349,76.938c-3.271,1.84-118.22,3.303-178.36,3.945c-60.141-0.643-175.089-2.105-178.36-3.945
		C71.885,239.422,70.683,182.455,69.885,169.43z"/>
	<path fill-rule="evenodd" clip-rule="evenodd" fill="#40C0FF" d="M128.766,101.432c-8.018,1.795-22.386,5.146-42.731,20.241
		c15.692-9.064,18.739-11.124,43.256-17.808c4.215-1.149,12.267,3.737,16.101,7.836c0.803,0.858-1.688-4.445-1.688-4.445
		c-3.504-7.779,77.115-7.545,118.89-8.142c41.774,0.597,122.395,0.363,118.89,8.142c0,0-2.491,5.303-1.688,4.445
		c3.835-4.099,11.887-8.985,16.102-7.836c24.518,6.684,27.563,8.743,43.256,17.808c-20.345-15.094-34.713-18.446-42.731-20.241
		c0,0-8.563-0.241-13.692,6.205c2.229-4.22,4.427-6.501,4.427-6.501c6.261-10.183-255.388-10.19-249.124,0
		c0,0,2.198,2.281,4.427,6.501C137.329,101.191,128.766,101.432,128.766,101.432z"/>
	<path fill-rule="evenodd" clip-rule="evenodd" fill="#40C0FF" d="M77.382,91.198c-1.303-1.421-5.173-9.276-3.648-10.247
		c1.525-0.971,23.047-4.749,26.651-5.025c3.604-0.277,6.663-0.616,7.703,0.631c1.04,1.248,7.754,14.202,7.685,13.647
		c-0.069-0.554-4.774-13.87-7.547-15.949c-1.954-1.465-38.236,2.756-37.948,7.081c0.069,1.04,3.214,9.943,5.154,11.398
		c1.94,1.456,43.459,5.372,43.459,5.372c6.442-11.098,38.008-61.093,49.054-63.523c5.218-1.147,49.989-2.595,94.3-2.936l0.348-0.003
		l0.348,0.003c44.311,0.34,89.082,1.788,94.3,2.936c11.046,2.43,42.611,52.425,49.054,63.523c0,0,41.52-3.916,43.46-5.372
		c1.94-1.456,5.085-10.359,5.154-11.398c0.288-4.325-35.994-8.546-37.948-7.081c-2.771,2.08-7.478,15.395-7.547,15.949
		c-0.069,0.555,6.646-12.399,7.686-13.647c1.04-1.248,4.098-0.909,7.702-0.631c3.604,0.277,25.126,4.055,26.651,5.025
		c1.524,0.97-2.346,8.825-3.648,10.247s-40.476,4.043-40.926,3.34c-10.385-16.21-31.789-56.08-47.688-62.174
		c-14.87-5.701-56.448-6.204-96.598-5.506c-40.149-0.698-81.728-0.195-96.598,5.506c-15.898,6.095-37.303,45.964-47.688,62.174
		C117.857,95.241,78.685,92.62,77.382,91.198z"/>
</g>
<g>
</g>
<g>
</g>
<g>
</g>
<g>
</g>
<g>
</g>
<g>
</g>
</svg>
