<?xml version="1.0" encoding="utf-8"?>
<!-- Generator: Adobe Illustrator 16.0.0, SVG Export Plug-In . SVG Version: 6.00 Build 0)  -->
<!DOCTYPE svg PUBLIC "-//W3C//DTD SVG 1.1//EN" "http://www.w3.org/Graphics/SVG/1.1/DTD/svg11.dtd">
<svg version="1.1" id="Layer_1" xmlns="http://www.w3.org/2000/svg" xmlns:xlink="http://www.w3.org/1999/xlink" x="0px" y="0px"
	 width="595.28px" height="207.13px" viewBox="0 0 595.28 207.13" enable-background="new 0 0 595.28 207.13" xml:space="preserve">
<g>
	<path fill="#FFFFFF" d="M298.848,81.146V65.69h-37.793v29.37h31.929v9.959l-31.929-0.123v33.966v7.789h-22.477v-9.836h11.239V65.69
		h-11.239v-9.836h70.111v25.292H298.848z"/>
	<path fill="#FFFFFF" d="M313.798,146.652v-5.747h-0.129v-48.91H303.07v-9.83h21.326v54.65h10.331v9.836H313.798z M322.227,66.72
		c-1.286,1.441-2.943,2.159-4.98,2.159c-2.046,0-3.705-0.717-4.979-2.159c-1.446-1.28-2.17-2.944-2.17-4.985
		c0-1.964,0.724-3.661,2.17-5.118c1.273-1.441,2.933-2.165,4.979-2.165c2.037,0,3.694,0.724,4.98,2.165
		c1.44,1.286,2.17,2.943,2.17,4.991C324.396,63.566,323.667,65.268,322.227,66.72z"/>
	<path fill="#FFFFFF" d="M383.137,146.652v-7.789V99.15c0-5.708-2.771-8.557-8.302-8.557c-3.238,0-6.76,0.946-10.593,2.804
		c-1.802,0.94-3.477,1.942-5.047,3.01c-1.58,1.063-3.093,2.236-4.539,3.505v36.903h9.837v9.836h-20.558v-7.789V91.995h-10.983v-9.83
		h21.704v5.875c1.279-0.935,2.581-1.786,3.899-2.554c1.324-0.762,2.704-1.491,4.151-2.169c4.512-1.875,8.851-2.81,13.024-2.81
		c5.451,0,9.836,1.613,13.152,4.846c3.32,3.321,4.979,7.661,4.979,13.024v38.439h9.579v9.836H383.137z"/>
	<path fill="#FFFFFF" d="M454.772,146.652v-8.173c-2.381,2.559-4.974,4.518-7.784,5.881c-4.167,2.119-8.689,3.182-13.53,3.182
		c-9.118,0-16.734-3.143-22.872-9.441c-6.035-6.464-9.058-14.348-9.058-23.628c0-9.708,2.977-17.798,8.941-24.257
		c5.947-6.47,13.48-9.708,22.593-9.708c4.513,0,9.074,1.108,13.664,3.321c2.899,1.525,5.581,3.706,8.046,6.504V63.649v-7.795h10.726
		v80.961h10.988v9.836H454.772z M448.519,96.98c-4.256-4.601-9.358-6.893-15.328-6.893c-5.958,0-11.026,2.292-15.193,6.893
		c-4.09,4.769-6.132,10.599-6.132,17.492c0,6.559,2.082,12.134,6.261,16.729c4.165,4.513,9.279,6.771,15.332,6.771
		c6.203,0,11.366-2.214,15.444-6.643c4.001-4.518,5.997-10.259,5.997-17.241C454.899,107.361,452.774,101.659,448.519,96.98z"/>
	<path fill="#FFFFFF" d="M484.403,117.921c0.763,5.786,2.982,10.51,6.637,14.176c4.429,4.595,10.048,6.898,16.857,6.898
		c1.113,0,2.487-0.195,4.151-0.584c1.658-0.379,3.3-0.823,4.913-1.335c1.618-0.501,3.115-1.03,4.473-1.536
		c1.363-0.506,2.348-0.89,2.932-1.151l2.688,8.812c-2.899,1.113-5.408,1.981-7.533,2.621c-2.126,0.634-4.34,1.234-6.644,1.792
		c-2.297,0.545-4.294,0.824-5.997,0.824c-9.631,0-17.542-3.238-23.756-9.697c-6.299-6.304-9.453-14.388-9.453-24.269
		c0-9.708,3.077-17.832,9.197-24.385c6.215-6.393,14.098-9.581,23.623-9.581c9.369,0,16.984,3.143,22.86,9.447
		c2.981,3.244,5.241,7.083,6.771,11.562c1.525,4.467,2.465,9.937,2.805,16.407H484.403z M520.672,95.7
		c-3.828-3.66-8.734-5.485-14.682-5.485c-6.304,0-11.5,2.292-15.583,6.894c-2.644,2.893-4.474,6.559-5.491,10.977h42.395
		C526.12,103.15,523.904,99.016,520.672,95.7z"/>
	<path fill="#FFFFFF" d="M579.919,91.745c-4.251,0-7.845,0.512-10.782,1.524c-2.938,1.024-5.303,2.349-7.088,3.961
		c-1.791,1.625-3.177,3.489-4.157,5.625c-0.973,2.125-1.468,5.107-1.468,8.93v25.03h12.385v9.836h-23.111v-7.789V91.995h-11.494
		v-9.83h22.221v6.381c0.685-0.846,1.446-1.441,2.303-1.781c0.852-0.333,1.741-0.773,2.683-1.279
		c1.273-0.595,2.682-1.107,4.216-1.535c1.531-0.423,3.127-0.763,4.791-1.019c1.658-0.262,3.315-0.423,4.974-0.506
		c1.664-0.094,3.216-0.133,4.662-0.133l4.345,0.133v9.319H579.919z"/>
</g>
<path fill="#FFFFFF" d="M45.991,146.284L10.874,55.137h21.999l25.28,69.967l25.281-69.967h22.003l-35.123,91.147H45.991z"/>
<path fill="#FFFFFF" d="M111.624,146.284V55.137h19.406v91.147H111.624z"/>
<path fill="#FFFFFF" d="M194.771,145.227l47.83,32.469c8.513,6.554-1.635,19.728-9.563,13.808l-47.841-32.479L194.771,145.227z"/>
<path fill="#FFFFFF" d="M208.207,146.284L164.75,86.838v59.446h-19.406V55.137h19.951l42.227,57.259V55.137h19.406v91.147H208.207z"
	/>
<g>
	<g>
		<path fill="#FFFFFF" d="M121.327,31.391c16.006,0,30.716,5.503,42.461,14.649c4.317-1.129,8.891-1.919,13.998-1.919
			c3.394,0,6.504,0.434,9.547,0.945C171.471,26.279,147.781,14.3,121.327,14.3c-32.491,0-60.821,18.042-75.575,44.614
			c0.779-0.028,1.446-0.223,2.242-0.223c6.064,0,11.377,1.107,16.329,2.676C76.846,43.281,97.715,31.391,121.327,31.391z"/>
		<path fill="#FFFFFF" d="M177.785,146.602c-1.518,0-2.821-0.317-4.267-0.423c-12.718,14.577-31.373,23.846-52.191,23.846
			c-17.336,0-33.169-6.443-45.337-17.002c-4.929,3.305-10.621,5.819-17.252,7.088c15.756,16.59,37.955,27.005,62.59,27.005
			c32.213,0,60.32-17.753,75.174-43.957C190.96,145.238,184.829,146.602,177.785,146.602z"/>
	</g>
</g>
<g>
</g>
<g>
</g>
<g>
</g>
<g>
</g>
<g>
</g>
<g>
</g>
</svg>
